<svg id="Capa_1" data-name="Capa 1" xmlns="http://www.w3.org/2000/svg" viewBox="0 0 1920 1080"><defs><style>.cls-1{fill:#78ac48;}.cls-2{fill:#4a72b0;}</style></defs><path class="cls-1" d="M1419.29,421c40,4.87,78.86,12.95,116.62,20.15s74.35,13.9,109,17.45c-27.72-2.82-55.56-7.39-83.52-12.42,21,3.79,40.18,7.15,59.46,10.1s38.6,5.54,59.67,7.07c-6.39.49-16.45-.12-25.76-.86s-17.87-1.52-21.35-1c-51.09-6.31-102-18.16-153.46-28.84q-19.29-4-38.86-7.61c-13-2.36-26.12-4.5-39.55-6.13L1325.14,409a278.2,278.2,0,0,1,51.25,4.71l21.23,3.92c3.55.63,7.2,1.24,10.8,1.78S1415.6,420.58,1419.29,421Z"/><path class="cls-1" d="M1788.87,452.62l-6.85,2.32c-1.13.37-2.25.78-3.39,1.14l-3.46,1-6.88,1.88-7,1.54C1771.24,458.36,1780.5,455.17,1788.87,452.62Z"/><path class="cls-1" d="M736.82,482.25c-2.62,1.47-5.3,2.85-7.89,4.38l-7.71,4.64-15.28,9q7.45-4.69,15.2-9.25l7.74-4.56C731.49,485,734.18,483.68,736.82,482.25Z"/><path class="cls-1" d="M1280.86,416.66c-6.28-.3-12.64-.74-19.08-1.23l-72.44-8.84c-12.18-1.47-24.35-3.07-36.65-4.45l-18.59-1.71-9.32-.86c-3.12-.27-6.24-.43-9.36-.65,6.8.35,13.65.93,20.54,1.49s13.85,1,20.78,1.64l41.66,4.36C1226.24,409.36,1254.11,412.57,1280.86,416.66Z"/><path class="cls-1" d="M1332.23,426.4q36.72,3.81,73.39,8.4c24.43,3.24,48.15,8.16,70.9,13.48-22.79-5.11-46.33-9.86-70.64-13.08C1381.57,432.16,1357.07,429.26,1332.23,426.4Z"/><path class="cls-1" d="M425.13,686.56c.32.3-.54.87-1.9,1.54s-2.77,1.15-3.84,1.68c-5.22,1.23-10.41,2.5-15.62,3.67-5.32,1-10.51,2-15.91,2.9a205.39,205.39,0,0,1-33.54,2.21c2.77-.11,5.44-.49,8.11-.78l4-.44c1.36-.2,2.72-.38,4.13-.52,3.07-.25,5.85-.31,8.4-.62l7.06-.75c2.23-.19,4.19-.47,6.06-.77l5.58-.86a99.14,99.14,0,0,0,11.86-2.46A151.55,151.55,0,0,0,425.13,686.56Z"/><path class="cls-1" d="M748.65,476l1-.77c3.62-2,7.15-4,10.82-5.72l1.39-.52C757.43,471.13,753.07,473.56,748.65,476Z"/><path class="cls-1" d="M450.6,678.05a3.84,3.84,0,0,0,3.2.88l-4.17,1.55-4.25,1.42-8.5,2.81c-5.69,1.81-11.5,3.35-17.24,5,1.33-.57,2.6-1.12,3.59-1.62,3.71-1.46,8.66-2.8,13.55-4.52A124.19,124.19,0,0,0,450.6,678.05Z"/><path class="cls-1" d="M678.06,552.19c5.86-4,10.27-8.72,12.82-10.88l23.8-13.58,3.06-1.77,3.15-1.64,6.42-3.35,13.39-7.15c2.56-2.05,8.7-5.14,14.09-8.83,3.68-1.25,7.6-2.72,11.67-4.34l-15.4,7.93c-2.57,1.34-5.18,2.61-7.72,4l-7.56,4.32-15.23,8.66c-5.08,2.92-10,6.27-15.1,9.4s-10.08,6.29-15.19,9.62l-15.4,10.17-31.51,20.86C654.61,567.85,666.24,559.93,678.06,552.19Z"/><path class="cls-1" d="M279,470a58.36,58.36,0,0,0,10.67,9.25,106.25,106.25,0,0,0,11.48,6.88,112.44,112.44,0,0,0,25.31,9.56c9,2.11,18.61,3.2,28.62,1.52a48.11,48.11,0,0,0,14.67-5,43.79,43.79,0,0,0,6.62-4.45c2.11-1.72,3.62-3.28,5.4-4.94a58.31,58.31,0,0,0,9.17-11.87,61.54,61.54,0,0,0,5.72-13.8,71.46,71.46,0,0,0,1.66-28.44,93.2,93.2,0,0,0-21.42-47.65,101.6,101.6,0,0,1,13.84,27.1,89.06,89.06,0,0,1,4.88,31.24c-.34,10.71-3.21,21.57-8.95,30.5a51.09,51.09,0,0,1-10.07,11.64,42.6,42.6,0,0,1-5.93,4.68,37.52,37.52,0,0,1-6.66,3.43c-9.19,3.6-18.44,3.53-26.31,2.36a78.55,78.55,0,0,1-20.35-6.15c-11.23-5.14-17.59-10.83-18.92-13.52s2.92-.58,11.38,3.19a124.13,124.13,0,0,0,15.94,5.85,71,71,0,0,0,21.14,3c7.53-.19,15.33-2.25,21.38-7.26,1.56-1.3,3.16-2.84,4.74-4.27a50.88,50.88,0,0,0,4.07-4.74,45.29,45.29,0,0,0,6-11c3-7.85,3.78-16.49,3.23-24.53a78.43,78.43,0,0,0-5-22c1,3.54,1.28,5.33,1.66,7.11s.63,3.57,1,7.12c-.74-7.09-2.44-14.37-5.87-19.9,2.47,6.8,5.22,17.15,5.39,26.66a53.83,53.83,0,0,1-1.09,12.81,26.11,26.11,0,0,1-2.87,7.91s.37-2.82.42-5.66c0-1.44,0-2.85-.1-3.93l-.15-1.78c-1.44,8.1-4.78,17-11.21,23.65-.9.8-1.6,1.59-2.62,2.45s-2.08,1.7-3.13,2.57a20.54,20.54,0,0,1-5.26,2.92A31.59,31.59,0,0,1,344,474c-10.23-.79-21.67-5.24-30.64-10.82a53.7,53.7,0,0,1-11-8.74,13.42,13.42,0,0,1-1.48-1.88,6.88,6.88,0,0,1-.62-1.33,3,3,0,0,1,.15-3.06c-.78,1.1-.22,2.37.26,3.36a13.3,13.3,0,0,0,2.84,3.52,62.09,62.09,0,0,0,11.43,8.5c8.72,5.17,19,9.07,28.39,9.94a31.46,31.46,0,0,0,12.7-1.11,20.85,20.85,0,0,0,5-2.44c.4-.32.69-.47,1.2-.91l1.5-1.3a37.48,37.48,0,0,0,2.83-2.6c6.59-6.51,10.33-16.2,10.48-27.37s-2.88-23.2-8.37-34.08a75.58,75.58,0,0,0-10-15.15,61.58,61.58,0,0,0-6.21-6.2c-1.11-.87-2.2-1.79-3.35-2.53l-.83-.59-1.06-.63-2.13-1.26a123,123,0,0,0-36.52-15,117.25,117.25,0,0,0-19.69-2.74c-3.34,0-6.67-.16-10,0s-6.69.33-10,.93c-26.6,3.48-52,17.22-70.32,37.52a122.08,122.08,0,0,0-22.1,34.38,129.59,129.59,0,0,0-9.77,39.69,138.8,138.8,0,0,0,2.87,40.95,173.19,173.19,0,0,0,13.43,39C194.9,577,212.62,598.61,233.08,616a209.39,209.39,0,0,0,18,13.29,206.28,206.28,0,0,0,19.25,10.91A182.81,182.81,0,0,0,311,654.74a166.36,166.36,0,0,0,41.56,4c3.44,0,6.83-.47,10.22-.66,3.38-.36,6.72-.89,10.05-1.34,3.33-.71,6.55-1.24,9.92-2.06l10.16-2.61a324.74,324.74,0,0,0,39.34-14c12.75-5.61,25.19-11.72,37.29-18.43,24.21-13.45,47.23-28.6,69.76-44.33,8.63-5.76,23.55-15.27,40.41-25.84l25.06-16.05L629,517.53l19.85-13.85,10-7c3.32-2.32,6.84-4.59,10.26-6.88,6.91-4.55,13.7-9.23,20.7-13.68l21.42-12.94a825.2,825.2,0,0,1,89.18-45A589.8,589.8,0,0,1,901.8,387.7a695.69,695.69,0,0,1,104.66-13.21c35.2-1.94,70.53-1.16,106.09.92l13.37.78,13.39,1.1c8.94.76,18,1.35,26.75,2.45l53.48,5.79c28.74,3,67.46,13.53-3.51,7.51-29.47-2.05-58.67-5.13-89-6.62-30.14-1.39-60.48-2.26-91-1.56,3.51-1,12.54-1.3,22.38-1.52s20.44.16,27.23-.47c-11.23-.5-21.93-1.23-32.47-1.19s-20.78-.33-31,.15l-15.41.52c-5.15.11-10.32.69-15.54,1l-15.85,1.27c-5.34.51-10.76,1.29-16.29,2,14.73-2.12,29.52-3.08,44.29-4.4,14.76-.68,29.55-1.67,44.29-1.67-36.85.55-75.89,3.23-115.44,9.71a616.35,616.35,0,0,0-117.62,31.15c-3.51,1.28-7,2.44-10.49,3.53s-6.89,2.37-10.38,3.49c-6.93,2.33-14,4.5-21.41,7.08-7.25,2.83-14.82,5.94-22.85,9.73a126.94,126.94,0,0,0-12.2,6.54c-4.15,2.45-8.43,5.12-12.83,8.05q8.91-4.41,17.86-8.83c3-1.53,6-2.84,9.07-4.18l9.17-4,9.18-4,4.61-2,4.69-1.82,18.79-7.27c25.3-9.08,51.11-17.33,77.54-23.25l9.87-2.36c3.29-.83,6.64-1.34,10-2l19.94-3.87,20.09-3.08,10-1.51,10.09-1.13c6.72-.72,13.44-1.56,20.16-2.2l20.2-1.52c6.74-.62,13.47-.81,20.19-1.09s13.47-.68,20.19-.76a3.73,3.73,0,0,0-.55.16c24-.51,46.81-.3,69.29.91l16.84.89c5.61.3,11.19.85,16.82,1.26l16.88,1.33,16.8,1.81-10.54-1c-3.49-.34-7-.64-10.52-.84-7-.46-13.76-1-20-1.65l24.94,2.56,24.45,3.19,48.75,6.08,48.6,5.8L1326,410.9c-45.41-3.16-92.59-7.45-140.27-12.15l-17.91-1.8c-6-.58-11.92-1.31-18-1.66-12.15-.8-24.32-1.93-36.55-2.37l-18.37-.89c-6.12-.22-12.27-.28-18.41-.43-12.3-.42-24.64-.16-37-.06-6.16,0-12.34.33-18.51.58s-12.35.49-18.53.84l-18.5,1.49-9.25.74-9.22,1.1L947,398.5c-6.12.89-12.21,1.95-18.31,2.92-12.23,1.76-24.25,4.62-36.3,7.07a614.92,614.92,0,0,0-136.54,48.72c6.22-2.44,12.63-5.1,19.16-7.92,3.24-1.47,6.63-2.72,10-4.06l10.26-4.08,10.37-4.23,10.63-3.87L827,429.16c3.56-1.29,7.09-2.66,10.7-3.72,28.56-9.71,57.26-16.19,80.32-18.77a658,658,0,0,0-124.92,36.54c-5.06,2.07-10.16,4-15.18,6.19l-14.93,6.82-7.49,3.42-3.74,1.7-3.66,1.87-14.68,7.49c-9.9,4.82-19.35,10.51-29,15.89l-7.23,4.09c-2.38,1.4-4.68,2.91-7,4.37L676,503.85c5.42-3.73,10.68-7.42,15.91-11.19-24,13.65-47.29,29.55-70.24,45.18-5.75,4-11.51,7.77-17.26,11.56S593,557,587.24,560.75c-11.71,7.46-23.29,14.81-34.77,21.79l-12.36,7.36,12.36-7.36,31.61-19.26c10.48-6.46,20.59-13,30.85-19.45l30.46-20.06,15.27-10,7.62-5,7.76-4.89c-18.38,12.8-37.72,26.18-61.13,41.42,13.25-7.3,31.66-19.09,50.31-30.88,5.94-4.05,12.19-7.87,18.29-11.79l9.2-5.84c3-2,6.12-3.9,9.32-5.66L721,480.3l4.73-2.67,4.83-2.48,9.65-4.95L725.4,478l-14.32,8.46c-4.73,2.84-9.51,5.57-14.12,8.51l-13.54,9c-4.47,3-8.95,6-13.3,9l-12.81,9.14q-12.7,9.09-24.72,18l37.88-24.57c6.38-4.1,12.91-8.07,19.35-12.13l9.72-6.07,10-5.67a644.29,644.29,0,0,1,82.11-40.16,696.18,696.18,0,0,0-88.36,45.65c-6,3.47-11.82,7.29-17.75,10.93s-11.86,7.32-17.62,11.19q-17.42,11.44-34.88,23c-11.57,7.77-23.33,15.18-35.08,22.69s-23.81,14.83-35.76,22.2l5.39-3.51-10.82,6.84c-18.75,11.45-37.73,22.65-57.21,33-17.39,9.46-34.48,18.63-52,26.77-3.05,1.21-6.05,2.49-9.08,3.63,2.78-1.37,4.77-2.56,4.71-2.81s-2.18.48-7.84,2.25q-4.51,1.47-9.08,2.93c-3,1-6.14,1.8-9.23,2.72-6.14,2-12.48,3.36-18.8,5.08l-9.64,2.1-4.84,1.05-4.86.78-4.87.79-4.93.51c-1.66.16-3.31.36-5,.49l-5,.23a163.35,163.35,0,0,1-80.45-17.18c-6.7-3.33-14.46-7.42-22.74-12.31a251.47,251.47,0,0,1-25.5-17.63,59.9,59.9,0,0,0-9.05-7.64c-1.73-1.59-3.55-3.12-5.25-4.79l-5.07-5a256,256,0,0,1-21.86-27,186.73,186.73,0,0,0,21.86,27c3,3.12,6,6.28,9.27,9.13-1.24-.83-2.57-1.66-4.14-2.87a67.81,67.81,0,0,1-5.58-5.18c27.37,29.5,64,52,104.56,61.16a189.41,189.41,0,0,0,30.87,4.2,171.66,171.66,0,0,0,31.22-1.46,305.87,305.87,0,0,0,61.21-16.52c-4.63,2.15-11.25,5.17-14,6.36,7.8-3.16,15.53-6.38,23.12-10,6.42-2.47,12.63-5.45,18.94-8.21,6.19-3,12.46-5.89,18.55-9.13,12.3-6.25,24.3-13.11,36.2-20.13-7,4.4-13.37,8.64-18.95,12.44,17.38-9.29,34.38-19.36,51.24-29.75,8.44-5.19,16.82-10.48,25.21-15.78s16.8-10.63,25-16.12c33.27-21.56,65.38-45.24,99.47-66.42a669.83,669.83,0,0,1,101-48.6,634.72,634.72,0,0,1,107-30.27,537.71,537.71,0,0,0-119.7,33.22c26-11.4,53-20.36,80.43-27.92s55.43-12.75,83.56-16.55c56.37-7.39,113.37-7.1,169.57-2.54l-33.46,1.36c-11.14.79-21.3,1.68-27.64,3,.8,1.44,36.84,2.77,15.83,3.13-9.56.26-18.76.38-27.61.87s-17.36.5-25.5,1.17-15.94.94-23.37,1.52l-21.21,2.12c-6.73.57-13,1.77-19,2.68s-11.57,1.86-16.74,3.15c-10.35,2.61-19.22,5.2-26.39,8.62-2.65,1.46,17.13.53,34.07.47,17,.35,31.16.95,17.92,3.36l-19.69,2.91-24.71,4.52c-8.9,1.78-18.34,4.1-28.25,6.25-4.9,1.25-9.87,2.66-14.94,4l-7.65,2.06c-2.58.67-5.15,1.37-7.69,2.23L851,463.22l-4.65,1.37-4.6,1.62-9.34,3.29c-1.62.41-4.09,1.77-7.21,3.43-43.56,16.36-82.68,38-104,50.23-4,2.1-7.91,4.64-11.84,7s-7.79,4.81-11.69,7.2c-4.27,2.2-8,3.93-11.14,5.18q-6.85,5.61-14,10.9L641,574.14c-10.58,6.88-21.47,13.7-32.08,20.48q-18.14,10.15-36.09,20.24c.5.28,2.75-.33.77,1.5-13.41,8.16-27,16.23-40.74,24s-27.92,15.23-42.34,22.23c-6.07,2.47-11.82,4.91-17.54,6.8s-11.1,3.73-16.36,5a132.26,132.26,0,0,1-13.77,6.69q-4,1.7-8.36,3.47l-9.34,3.26-4.92,1.67c-1.68.52-3.43,1-5.18,1.49-3.51,1-7.11,2-10.82,3-7.54,1.64-15.14,3.47-23.87,4.61a193.8,193.8,0,0,1-52.21-.06A234.3,234.3,0,0,1,280.66,687v.19a236,236,0,0,1-77.1-47c-3.34-3.82-6.6-7.34-9.22-11-5.84-4.78-11-10.81-13.76-13.42a208.85,208.85,0,0,1-32-57c-1.71-3.32-5.83-9.37-8.3-17.11A207.44,207.44,0,0,1,131.39,495a166.47,166.47,0,0,1,6.33-55.33,155.73,155.73,0,0,1,51.7-77.61,146.33,146.33,0,0,1,85.71-32.74,4.25,4.25,0,0,1,3,1.8c9.47-1.34,22.78.28,31.18,1.44-1.65,0-2.7.11-2.51.53,13.8,1.77,21.7,4.58,28.86,7.69a112.69,112.69,0,0,1,10.84,5.34c1.91,1,4,2.15,6.18,3.36l7.06,4.37c1.22.68,2.43,1.34,3.63,2,1.34.82,2.76,1.6,4,2.44a63.39,63.39,0,0,1,7.38,5.46,89.38,89.38,0,0,1,6.06,6.59,142.85,142.85,0,0,1,19.26,39.26,104.73,104.73,0,0,1,4.42,22.28,77.21,77.21,0,0,1-1.73,24.63,68.77,68.77,0,0,1-4.56,12.35,64,64,0,0,1-7.12,11.26,61.32,61.32,0,0,1-4.37,5c-1.5,1.52-3,2.79-4.49,4.19a50.34,50.34,0,0,1-5.38,4.3,49.76,49.76,0,0,1-6.19,3.59,56.32,56.32,0,0,1-26,5.32A85.84,85.84,0,0,1,321,498.49a84.77,84.77,0,0,1-25.1-12.44,89,89,0,0,1-8.49-6.93A67.53,67.53,0,0,1,279,470Z"/><path class="cls-1" d="M346.2,698.21A213,213,0,0,1,264,675.61a228.86,228.86,0,0,0,41.11,14.51C318.74,693.6,332.28,696.06,346.2,698.21Z"/><path class="cls-1" d="M990.64,436.21c5,.28,10.18.42,15.68.46q8.29.38,17.33.46c-63.35,2-125.41,12.63-185.5,33.48l-.12-.13a529.38,529.38,0,0,1,82.31-22l5.24-1.09,5.23-.86,10.2-1.73,9.78-1.75c3.19-.56,6.32-.93,9.34-1.42,6-.92,11.68-1.86,16.8-2.84S986.68,437.13,990.64,436.21Z"/><path class="cls-1" d="M423.23,688.1c-1,.5-2.26,1-3.59,1.62l-.25.06C420.46,689.25,421.76,688.66,423.23,688.1Z"/><path class="cls-1" d="M1114.34,407.87l6.36.38-24.2-.81c-8.06-.28-16.16-.17-24.23-.3,6.45-.14,13.28-.17,20.34-.14Z"/><path class="cls-1" d="M1286.92,427.16q49.18,4.92,98.44,9.88c42.18,4.31,82.85,13.28,121.45,22.76-36.13-7.41-72.28-15.08-108.93-19.31Z"/><path class="cls-1" d="M1113.43,437.06c6.59.55,13.21,1.46,19.85,2.35s13.26,1.69,20,2.7c-6.78-.74-13.41-1.23-20.1-1.84s-13.32-1.21-20-1.54C1115.75,438.37,1113.68,437.58,1113.43,437.06Z"/><path class="cls-1" d="M979.25,411.26l9.83-.84-12.54,1.71-12.48,2.21C967.07,413.69,974.21,412.14,979.25,411.26Z"/><path class="cls-1" d="M1257.12,455.05l-29.87-3.8c5.94.37,11.84.61,17.8.71A96.76,96.76,0,0,0,1257.12,455.05Z"/><path class="cls-1" d="M1413,471.91c13.09,1.83,26,4.06,38.35,6.48-15.43-2.57-31.12-5-46.31-6.68C1408.6,471.65,1411.4,471.55,1413,471.91Z"/><path class="cls-2" d="M887.52,578.8v2.89q0,18.84-14.92,35.38Q856.18,632,837,632H806.17V528.5h28.4q23.83,0,40.2,17.57Q887.52,561.36,887.52,578.8ZM831.93,534H811.71v92.18h29.36a40.51,40.51,0,0,0,12.76-3.37q2.76-.72,10.83-6.5Q882,601.06,882,580.25q0-18.66-14.68-33.94l-6-4.81q-11.13-6.62-21.42-7.22L836,533.8Z"/><path class="cls-2" d="M932.05,556.42a40.88,40.88,0,0,1,28.64,11.07l3.85,4.82a38,38,0,0,1,6.25,21.17v1.69h-70v1.2q0,9.69,7,19,7.82,7.51,14,9.14a35.54,35.54,0,0,0,10.35,1.93q21.12,0,30.32-18.05a30.94,30.94,0,0,0,2.17-7.71h5.77v.49q0,5.53-5.77,15.64a40.18,40.18,0,0,1-17.33,13A48.9,48.9,0,0,1,934.93,632h-3.85q-10.83,0-21.66-7-8.89-8.06-10.59-12.51a44.06,44.06,0,0,1-4.09-18.29q0-9.21,4.81-19.5,6.33-10.71,19-15.64A74.78,74.78,0,0,1,932.05,556.42Zm-30.81,33.21h63.54v-.24q-1.38-9-5.06-13.72a29,29,0,0,0-14-10.83A41.23,41.23,0,0,0,933,562.2q-4.75,0-13.72,2.64a39.64,39.64,0,0,0-11.55,8.43Q901.24,582.06,901.24,589.63Z"/><path class="cls-2" d="M978,556.18h5.77q.36,0,5.29,13.24l19,51.5h.48l23.83-64.74h6v.24L1010.27,632h-3.37q-1-1.2-7.71-20Z"/><path class="cls-2" d="M1076.93,556.42a40.86,40.86,0,0,1,28.64,11.07l3.85,4.82a38,38,0,0,1,6.26,21.17v1.69h-70v1.2q0,9.69,7,19,7.81,7.51,13.95,9.14a35.54,35.54,0,0,0,10.35,1.93q21.12,0,30.33-18.05a30.54,30.54,0,0,0,2.16-7.71h5.78v.49q0,5.53-5.78,15.64a40.18,40.18,0,0,1-17.33,13,48.76,48.76,0,0,1-12.27,2.16H1076q-10.83,0-21.66-7-8.91-8.06-10.59-12.51a43.91,43.91,0,0,1-4.09-18.29,46.09,46.09,0,0,1,4.81-19.5q6.32-10.71,19-15.64A74.68,74.68,0,0,1,1076.93,556.42Zm-30.8,33.21h63.53v-.24q-1.38-9-5.05-13.72a29,29,0,0,0-14-10.83,41.28,41.28,0,0,0-12.76-2.64c-3.16,0-7.74.88-13.71,2.64a39.51,39.51,0,0,0-11.55,8.43Q1046.12,582.06,1046.13,589.63Z"/><path class="cls-2" d="M1128.44,632h-5.54V528.5h5.54Z"/><path class="cls-2" d="M1172.72,556.42a46.5,46.5,0,0,1,21.66,5.54,34.22,34.22,0,0,1,15.16,18.77,36.51,36.51,0,0,1,2.17,12.27v2.89a38.76,38.76,0,0,1-6.74,21.42q-6.79,8-10.83,9.39-7.76,4.57-12.52,4.57,0,.72-9.62.72h-.48q-10.05,0-20.7-6.74-15.16-11.31-15.16-31.28a41.93,41.93,0,0,1,6.25-21.42Q1152.86,557.27,1172.72,556.42Zm-31.29,38a32.86,32.86,0,0,0,7.7,21.42,34.2,34.2,0,0,0,13,8.66,44.6,44.6,0,0,0,11.07,1.93h1.21q10,0,20.45-7,6.2-5.84,7.94-10.11a38.66,38.66,0,0,0,3.37-15.4,38.09,38.09,0,0,0-3.61-15.17,30.24,30.24,0,0,0-16.36-14.2,44.5,44.5,0,0,0-12.28-2.4q-8.12,0-17.33,4.57a30.94,30.94,0,0,0-12.75,14.68Q1142.1,585.72,1141.43,594.45Z"/><path class="cls-2" d="M1224.46,573.51q7.71-10.29,13.24-12.28,7.63-4.8,21.42-4.81a44,44,0,0,1,17.09,4.57q11.91,6.51,17.09,20.46,1.68,4.57,1.68,13,0,11.55-4.81,19.25-5.78,11.19-20.7,16.61a51.74,51.74,0,0,1-13.48,1.92q-13.11,0-24.55-9.14-5.48-5.18-6.74-8h-.24v44.53h-5.53V556.18h5.53Zm.48,19.73V594l-.24.24.24.24v1q0,15.35,12.76,25,9.27,5.77,18,5.78h2.65q8.11,0,17.57-5.3,13.47-10.17,13.47-26.71a35,35,0,0,0-7-20.7q-10.54-11.31-24.79-11.31h-1.45q-10.47,0-21.18,7.7Q1224.94,579.77,1224.94,593.24Z"/><path class="cls-2" d="M1330.12,556.18q5.36,0,13,3.13,7.76-3.13,12.27-3.13h1.2q10.83,0,19.74,7.94a25.84,25.84,0,0,1,7.22,17.81V632h-5.3V582.41q0-7.1-5.53-13.95a23.25,23.25,0,0,0-17.33-7c-2,0-5.05.72-9.15,2.16V632h-5.53V564.12a29.2,29.2,0,0,0-11.79-2.64q-7.77.9-11.56,3.36-9.87,7.35-9.62,18.3V632h-5.54V583.86q0-14.57,11.55-22.87A28,28,0,0,1,1330.12,556.18Z"/><path class="cls-2" d="M1428.07,556.42a40.86,40.86,0,0,1,28.64,11.07l3.85,4.82a38,38,0,0,1,6.26,21.17v1.69h-70v1.2q0,9.69,7,19,7.82,7.51,14,9.14a35.54,35.54,0,0,0,10.34,1.93q21.12,0,30.33-18.05a30.54,30.54,0,0,0,2.16-7.71h5.78v.49q0,5.53-5.78,15.64a40.15,40.15,0,0,1-17.32,13A48.9,48.9,0,0,1,1431,632h-3.85q-10.83,0-21.66-7-8.91-8.06-10.59-12.51a43.91,43.91,0,0,1-4.09-18.29,46.09,46.09,0,0,1,4.81-19.5q6.32-10.71,19-15.64A74.85,74.85,0,0,1,1428.07,556.42Zm-30.8,33.21h63.54v-.24q-1.39-9-5.06-13.72a29,29,0,0,0-14-10.83A41.23,41.23,0,0,0,1429,562.2q-4.76,0-13.72,2.64a39.64,39.64,0,0,0-11.55,8.43Q1397.26,582.06,1397.27,589.63Z"/><path class="cls-2" d="M1479.58,573.27a42.38,42.38,0,0,1,6.5-7.7q7.28-5.48,8.66-5.54,7.69-3.85,19.49-3.85a44.52,44.52,0,0,1,21.18,7.22q10,7.33,13.72,20.46c.64,2.4,1,6.34,1,11.79V632h-5.53V594.93q0-22.86-20.94-31-3.37-1.26-11.55-1.92-7.21,0-16.13,3.85a34.91,34.91,0,0,0-7,5.05q-5.78,5.42-8.42,14.92a78.77,78.77,0,0,0-1,13.24v33H1474v-76h5.54Z"/><path class="cls-2" d="M1562.85,555.94h33v5.54h-33v31a42,42,0,0,0,3.37,14.68q1.86,4.93,10.35,12.76,10.47,6.49,20.7,6.5h.72V632h-.24a41,41,0,0,1-30.33-12.75q-10.1-11.81-10.1-29.12V528.5h5.53Z"/><path class="cls-2" d="M1264.66,647.39h53.19v5.3H1269q-11.25,0-15.16,2.4-11.07,6.07-11.07,19.74,0,13,12,19.73a24.46,24.46,0,0,0,8,1.69h33c3.24,0,7.34,1.68,12.27,5a28.58,28.58,0,0,1,9.63,22.14q0,16.13-13.72,24.31a25.33,25.33,0,0,1-10.59,2.89h-56.56v-5.06h48.38q11.55,0,14.92-1.92,12-5.83,12-20.94,0-4.76-3.61-11.79-3.62-6-11.79-8.67l-4.57-.72h-32.25q-8.19,0-16.13-8.18-6.49-8.55-6.5-17.57v-1.2q0-13.79,11.07-22.63A31.22,31.22,0,0,1,1264.66,647.39Z"/><path class="cls-2" d="M1362.37,675.07A40.86,40.86,0,0,1,1391,686.14l3.85,4.81a38.09,38.09,0,0,1,6.26,21.18v1.69h-70V715q0,9.69,7,19,7.82,7.53,14,9.15a35.88,35.88,0,0,0,10.35,1.92q21.12,0,30.33-18.05a30.34,30.34,0,0,0,2.16-7.7h5.78v.48q0,5.53-5.78,15.65a40.16,40.16,0,0,1-17.33,13,48.41,48.41,0,0,1-12.27,2.17h-3.85q-10.83,0-21.66-7-8.91-8.07-10.59-12.52a43.84,43.84,0,0,1-4.09-18.29,46.08,46.08,0,0,1,4.81-19.49q6.31-10.71,19-15.65A75.54,75.54,0,0,1,1362.37,675.07Zm-30.8,33.21h63.53V708q-1.38-9-5-13.72a29,29,0,0,0-14-10.83,41.32,41.32,0,0,0-12.76-2.65c-3.16,0-7.74.89-13.71,2.65a39.46,39.46,0,0,0-11.55,8.42Q1331.56,700.7,1331.57,708.28Z"/><path class="cls-2" d="M1413.64,685.42q8.77-10.35,20.93-10.35h.49v5.29h-.24q-11.62,0-17.81,9.39-3.13,4.28-3.13,14.2v46.69h-5.54V674.83h5.3Z"/><path class="cls-2" d="M1442.28,674.83h5.77q.36,0,5.3,13.23l19,51.51h.48l23.83-64.74h6v.24l-28.16,75.57h-3.37q-1-1.2-7.7-20Z"/><path class="cls-2" d="M1515.26,659.6h-5.35V647.15h5.35Zm.06,91h-5.41V674.83h5.41Z"/><path class="cls-2" d="M1567.07,675.07h26v5.77h-27.68q-16.07,0-22.14,4.82-8.61,4.27-13.24,17.57a60.22,60.22,0,0,0-1.44,9.62,48.42,48.42,0,0,0,2.41,12.76,31,31,0,0,0,15.4,16.61q6,2.88,19.25,2.88h27.44v5.54h-34.18q-17.62,0-29.12-14.44A41,41,0,0,1,1524,723l-1.45-8.66a51.81,51.81,0,0,1,4.09-19.26l3.13-5q6.38-9.39,18.53-13Q1552.75,675.07,1567.07,675.07Z"/><path class="cls-2" d="M1637.58,675.07a40.89,40.89,0,0,1,28.65,11.07l3.85,4.81a38.09,38.09,0,0,1,6.25,21.18v1.69h-70V715q0,9.69,7,19,7.82,7.53,14,9.15a35.82,35.82,0,0,0,10.34,1.92q21.12,0,30.33-18.05a30.74,30.74,0,0,0,2.17-7.7h5.77v.48q0,5.53-5.77,15.65a40.22,40.22,0,0,1-17.33,13,48.54,48.54,0,0,1-12.28,2.17h-3.85q-10.83,0-21.66-7-8.91-8.07-10.59-12.52a43.84,43.84,0,0,1-4.09-18.29,46.08,46.08,0,0,1,4.81-19.49q6.33-10.71,19-15.65A75.71,75.71,0,0,1,1637.58,675.07Zm-30.8,33.21h63.54V708q-1.39-9-5.06-13.72a29,29,0,0,0-14-10.83,41.27,41.27,0,0,0-12.75-2.65q-4.75,0-13.72,2.65a39.59,39.59,0,0,0-11.55,8.42Q1606.77,700.7,1606.78,708.28Z"/><path class="cls-2" d="M1707.38,674.83h46.45v5.53h-47.66q-12.45,0-15.88,10.11a19.2,19.2,0,0,0-1,5.54q0,6.5,5.53,11.55c2.93,2.08,5.5,3.21,7.7,3.37H1736a20.06,20.06,0,0,1,11.07,4.81q4.94,4.69,6,9.63l.49,3.13v5a19.24,19.24,0,0,1-15.65,16.85l-5.29.24h-49.1v-5.3h47.89q13.24,0,16.37-10.83l.48-3.85q0-9.2-9.14-13.47l-4.34-1h-30.56a20.65,20.65,0,0,1-12.28-3.61q-8.17-6.92-8.18-16.84,0-9.27,7.46-16.61Q1696.85,674.83,1707.38,674.83Z"/></svg>