<svg id="Capa_1" data-name="Capa 1" xmlns="http://www.w3.org/2000/svg" viewBox="0 0 1024 768"><defs><style>.cls-1{fill:#002d74;}.cls-2{fill:#00953b;}</style></defs><path class="cls-1" d="M983.3,318.28a15.55,15.55,0,0,1-15.5,15.59h0a15.59,15.59,0,0,1-15.56-15.55h0a15.56,15.56,0,0,1,15.49-15.59h0a15.55,15.55,0,0,1,15.57,15.55Z"/><path class="cls-2" d="M372.86,364.46a69.7,69.7,0,0,1-69.41,69.81h0a69.59,69.59,0,0,1-69.78-69.44h0a69.52,69.52,0,0,1,69.42-69.75h0a69.62,69.62,0,0,1,69.77,69.38Z"/><path class="cls-1" d="M152.67,135.7l-94.23.17s.33,312.4.33,313.68c0,28,6.62,57,20.71,81.26,41.37,70.93,153.1,97.27,223,55.79,40.17-23.79,65.93-60.55,74.19-105.94.46-2.42,6-34.48,4.16-34.48l-99.61.24c.83.13-2.59,16.35-3,17.91C263.4,515.9,189.58,522,165.45,474.59a67.14,67.14,0,0,1-6.5-21A70.76,70.76,0,0,1,165,413.11c10.15-21.08,34.17-28.77,56.08-28.85l-.2-98.84s-46.43-3.47-67.81,18Z"/><path class="cls-1" d="M544.37,274a72.53,72.53,0,0,1,1,7.22c.4,3.62.61,6.27.61,7.92a8.3,8.3,0,0,1-.45,2.36,21.78,21.78,0,0,1-4.63-.53,72.1,72.1,0,0,0-6.76-9.3,32.63,32.63,0,0,0-9.47-6,24.28,24.28,0,0,0-9.74-1.83c-7.07.07-13.26,3.2-18.59,9.57s-8,15.71-8,28.24a47.78,47.78,0,0,0,3.16,17.06,28,28,0,0,0,9.43,12.95,24,24,0,0,0,14.76,4.7,37.52,37.52,0,0,0,8.74-1.11,7,7,0,0,0,3.8-2,5.53,5.53,0,0,0,1.33-3.05,79.46,79.46,0,0,0,.5-10.42c0-4.34-.11-7.36-.23-9a3,3,0,0,0-.86-1.22,13,13,0,0,0-2.56-.91l-5.66-1.51a3.9,3.9,0,0,1-2.26-1.05,7.58,7.58,0,0,1-.13-1.21,9.57,9.57,0,0,1,.42-2.45,5.72,5.72,0,0,1,1.56-.42c4.64,0,8.63.16,12,.44,1.16.05,2.49.12,3.82.09l10-.15,4.27-.11c.51,0,1.89,0,4.22.11,0,1.09.09,2,.09,2.74a3.11,3.11,0,0,1-.43,1.6,27.83,27.83,0,0,1-3.7,1.66,13.13,13.13,0,0,0-2.92,1.3,2.58,2.58,0,0,0-.63,1.54,68.28,68.28,0,0,0-.18,7.55c0,5,0,7.93,0,8.94-.2,3.11-.27,4.82-.27,5.26,0,1.57-.17,2.59-.58,2.93-1.22,1.19-4.85,2.52-11,4.05a92.66,92.66,0,0,1-21.39,2.31A71.64,71.64,0,0,1,498.74,351,34.8,34.8,0,0,1,488,347a38.07,38.07,0,0,1-10.22-8.66,33.53,33.53,0,0,1-6.36-10.91,50.92,50.92,0,0,1-3-16.67,45.53,45.53,0,0,1,4.28-18.83,40.41,40.41,0,0,1,23.15-21.34,51.33,51.33,0,0,1,18.72-3.33,29.88,29.88,0,0,1,4.18.29,51.76,51.76,0,0,1,14.41,1.89A47.43,47.43,0,0,1,544.37,274Z"/><path class="cls-1" d="M562.51,346.72a14.62,14.62,0,0,1,4.91-1.33,25.07,25.07,0,0,0,5.82-1.38,14.76,14.76,0,0,0,.34-1.82q.13-.87.14-6.07L573.58,322l.27-7.63-.18-5.89.16-3.43c.06-4.58.16-8.86.12-12.92,0-8.75-.1-14.37-.32-16.81l-3.72-.77c-3.47-.17-5.73-.41-6.89-.58l-.1-3.84.27-.66a30.18,30.18,0,0,1,5.76-.56c1,0,3,0,5.88-.05,3.08.21,4.74.37,5,.37l3.35-.2,7.92-.43c4.9-.49,10.14-.77,15.64-.8,8.68,0,15.52,2.2,20.68,6.58s7.67,9.43,7.67,15.17a18,18,0,0,1-4.14,11.61c-2.73,3.48-6.95,6.14-12.66,7.91.51.91,1.2,1.94,2,3.11,1.81,2.54,3.21,4.71,4.32,6.41L634.75,335c2.55,4.35,4.19,6.91,5,7.61a14.4,14.4,0,0,0,4.81,2.43,18.39,18.39,0,0,1,4.4,2.14,7.29,7.29,0,0,1,.37,1.87,12.49,12.49,0,0,1-.09,1.49h-1.68l-1.27.05-3.28-.42-2.61,0a33.52,33.52,0,0,0-5-.31l-6.29-.07c-.5.06-2,.18-4.46.45-1.15.13-2.07.28-2.71.33l-2.17-4.16c-1.78-3.18-3-5.53-3.77-7.08q-2.78-6.11-9.58-19.58c-2.13-4.09-3.64-6.43-4.46-7-1.26-.86-3.45-1.32-6.55-1.32-.81,0-2.29.08-4.29.15A34.33,34.33,0,0,0,591,316l.32,14-.34,11.9a13.51,13.51,0,0,0,4.62,1.66A51.73,51.73,0,0,1,604,346c0,2.08-.08,3.62-.19,4.7-.82,0-1.33-.07-1.56-.07l-2.59.13c-9.07-.77-14.47-1.17-16.13-1.17a20.1,20.1,0,0,0-2.35.09l-8.73.58a61.47,61.47,0,0,1-7.27.46h-2.74c-.1-1-.14-1.71-.14-2A12.79,12.79,0,0,1,562.51,346.72Zm28.41-41c2,0,3.51.09,4.45.09,7.18,0,12.22-1.31,15.25-3.84A13,13,0,0,0,615,291.55,24.19,24.19,0,0,0,614,284a13.62,13.62,0,0,0-2.78-5.22,14.2,14.2,0,0,0-6.11-3.68c-1.88-.67-4.85-1-8.91-1a37.58,37.58,0,0,0-5,.32L591,275.7l.16,8.58-.21,5.21.1,6.88c-.1,1.93-.13,4.45-.16,7.55Z"/><path class="cls-1" d="M647.36,273.75l-.2-5c.79-.06,1.56-.06,2.41-.06,2.08,0,4.32,0,6.62.17,5.53.24,8.88.41,9.84.42,3.35,0,6.67-.11,9.92-.22s6.11-.2,8.63-.28,4.2-.09,5.1-.15l0,.76.11,3.72v.48a50.74,50.74,0,0,1-7.34.51c-2.41,0-4,.5-4.7,1.42-.5.58-.77,3.12-.77,7.52,0,1.36,0,2.48.09,3.31l.07,2.28-.13,5.93.42,5.08-.23,10.95.87,15.94a24.8,24.8,0,0,0,3.05,11.42,13.85,13.85,0,0,0,5.74,5.22,23.59,23.59,0,0,0,10.43,2.68,39.13,39.13,0,0,0,11.38-1.63,19.76,19.76,0,0,0,5.84-2.89,16.12,16.12,0,0,0,3.8-3.67,23.83,23.83,0,0,0,3.16-6.53,52,52,0,0,0,1.16-13c-.06-10.17-.62-21.72-1.74-34.47l-.27-3.37c-.11-2.5-.62-4.17-1.38-5a6.43,6.43,0,0,0-4.58-1.95l-5.94.16-.83-.2.12-4.89h5l12.13.54c4,0,7.87-.25,11.53-.6l1.11.1a22.49,22.49,0,0,1,.36,2.92,6.61,6.61,0,0,1-.26,1.75,23.24,23.24,0,0,1-4.89.76c-2.84.33-4.43.68-4.7.93a2.85,2.85,0,0,0-.86,2.38c0,.78.08,1.86.15,3.24a38.59,38.59,0,0,1,.21,5.57c0,1.43,0,2.62,0,3.46s.08,1.73.12,2.59c.11,3.05.26,6.14.34,9.27l.66,12.86c0,8.65-.24,14.38-.82,17.31a21,21,0,0,1-2.4,6.9,25.79,25.79,0,0,1-6.59,7,33.65,33.65,0,0,1-10.82,5.1,53.66,53.66,0,0,1-15,2,48.88,48.88,0,0,1-16.86-2.61,25.37,25.37,0,0,1-10.62-6.87,23.83,23.83,0,0,1-4.94-11.1,69.36,69.36,0,0,1-1-13.4l0-30.22c-.07-7.12-.37-11.17-1.06-12.12-1-1.32-3.85-2-8.7-2.19A16.39,16.39,0,0,1,647.36,273.75Z"/><path class="cls-1" d="M746.68,272.36l-.09-4.78,15.13.93,6.81-.14,2.5,0c2.56,0,6.56-.16,12.05-.45a58.1,58.1,0,0,1,5.89-.35,61.22,61.22,0,0,1,12.06.82,20.77,20.77,0,0,1,16.16,11.94,21.77,21.77,0,0,1,2.62,9.63c0,7.31-2.26,13.34-6.89,17.93a24.06,24.06,0,0,1-17.51,6.91,26.16,26.16,0,0,1-6.95-.89,23.75,23.75,0,0,1-6.29-2.65,34.91,34.91,0,0,1-.32-5c1,.07,2,.14,2.79.15s1.52.08,2.13.08a13.66,13.66,0,0,0,9.06-3c3.26-2.58,4.87-6.79,4.86-12.56a21.64,21.64,0,0,0-2.14-10.19,11.82,11.82,0,0,0-5-5.33,20.82,20.82,0,0,0-9.17-1.89c-3.14,0-5.39.47-6.75,1.43a7.72,7.72,0,0,0-.75,1.57l.55,29.88-.15,2.5.19,2.7c0,.56.09,1.43.09,2.56v5.21l.08,8.29-.08,9.9a46.18,46.18,0,0,0,.42,5.64l12.56,1.56a11.81,11.81,0,0,1,.24,2.37,14.26,14.26,0,0,1-.29,2.69A12.79,12.79,0,0,1,788,350c-1.3,0-3.75-.14-7.4-.44s-7.77-.43-12.43-.43a106,106,0,0,0-14.93,1c-.79.12-2.07.23-3.79.33a24.91,24.91,0,0,1-.26-2.7c0-.42.07-1,.1-1.82l3.9-1.27a32,32,0,0,0,6.88-2.91,11.46,11.46,0,0,0,.58-3.36c0-.39,0-.91-.09-1.42-.05-1.35-.06-3.18-.06-5.52l-.25-17.83-.75-20.08c-.33-9.54-.59-14.67-.72-15.43a5.38,5.38,0,0,0-1.56-2.87,6.68,6.68,0,0,0-3.6-1.48A47.71,47.71,0,0,1,746.68,272.36Z"/><path class="cls-1" d="M829.09,307.9a44.21,44.21,0,0,1,3-15.77,37.65,37.65,0,0,1,6.21-10.49,41.81,41.81,0,0,1,10-8.49,44,44,0,0,1,12.26-5.32,53.15,53.15,0,0,1,14-1.65c8.74,0,16.33,1.59,22.88,4.88a39.1,39.1,0,0,1,15.25,13.31,41.18,41.18,0,0,1,7.28,23,42.79,42.79,0,0,1-12.12,30.74Q895.64,350.92,874,351a58.8,58.8,0,0,1-10.07-.69,35.34,35.34,0,0,1-6.18-1.35c-3.25-1-5-1.67-5.4-1.81a54.58,54.58,0,0,1-11.16-8,42,42,0,0,1-7.07-9.27,56.85,56.85,0,0,1-3.62-10.49A46.49,46.49,0,0,1,829.09,307.9Zm43-35.46a18,18,0,0,0-9.71,2.61,20.71,20.71,0,0,0-6.39,5.68,35.39,35.39,0,0,0-5.11,11.51,65.39,65.39,0,0,0-1.44,15.14,49.67,49.67,0,0,0,.45,7.79c.09.54.23,1.4.42,2.62a33.51,33.51,0,0,0,1.31,6.8,70.17,70.17,0,0,0,3.9,10,24,24,0,0,0,5.64,6.35,19.12,19.12,0,0,0,5.5,3,20.6,20.6,0,0,0,7.22,1.33A25.42,25.42,0,0,0,886.52,342c4-2.14,7.05-5.79,9.42-10.86s3.48-11.77,3.41-20c0-3.4-.19-7.94-.69-13.73l-.3-1.21a14.62,14.62,0,0,1-.61-2.56c-1.65-6.93-4.57-12.25-9-15.84S878.74,272.44,872.09,272.44Z"/><path class="cls-1" d="M397.79,411.12l.16-5.24c7.65-2.3,11.81-3.59,12.38-3.94a64.59,64.59,0,0,0,25.09-22.07,20.56,20.56,0,0,1,3.38-.37l2.12.15c.47,5.69.75,9.86.75,12.49,0,.59-.14,3.25-.37,8l.05,9.4.32,51.36-.38,54.33c-.14,4.41.58,7.47,2.14,9.21s6.06,3.62,13.61,5.69a108.52,108.52,0,0,1,10.64,3.41,5.48,5.48,0,0,1,.56,2.14,5.69,5.69,0,0,1-.9,2.67c-4.57-.11-10.52-.4-17.68-.86q-14.71-1.2-19.53-1.19c-1.52,0-10.93.34-28.3.95-3.55.16-7,.47-10.28.91a9.26,9.26,0,0,1-2.86-.53,4.13,4.13,0,0,1-.89-2.13c0-1.63,1.13-3,3.4-3.91.46-.24,6.5-1.63,18-4.11,3.81-.74,6.27-2,7.47-3.59q3-3.76,3-11.93.3-13.69.17-75.12c-.05-8.2-.39-13.28-1.11-15.26-.61-1.46-2.2-3.07-4.74-4.92S406,413,397.79,411.12Z"/><path class="cls-1" d="M528.36,361.24l5.48.19.74,16.92-.29,21.9c2.26.13,3.67.17,4.26.17,3.08,0,8.91-.25,17.52-.79,5.52-.3,10.85-.55,16-.55,2.34,0,5.88.06,10.6.15.24,2.37.38,4.29.38,5.71a44.76,44.76,0,0,1-1,7.35h-3l-27.43.95-13.67.39-3.18.35a33.19,33.19,0,0,0-1.37,10.33L533.9,451l-.22,47c0,12.38,1.62,20.6,4.83,24.59q4.62,6.26,13.84,6.24c3-.06,8.83-1,17.3-2.92,2.66-.6,6.08-2.62,10.49-5.89l1.6-.06a3.46,3.46,0,0,1,3.55,3.6l-.18,1.23a46.31,46.31,0,0,1-17.45,12.26c-6.55,2.55-15.27,3.87-26.09,3.9-7.67,0-14-1.75-19-5.31s-8.27-7.76-9.7-12.59-2.18-15.52-2.22-31.93l.61-40.1L511,431.84v-7.11c0-3.34-.15-6.66-.37-9.94l-3.06-.22-14.51.59-1.39.19a4.83,4.83,0,0,1-3-.89,2.94,2.94,0,0,1-1-2.13,4.68,4.68,0,0,1,1.36-3.48q1.34-1.31,8-4.26c3.1-1.27,6.65-3.72,10.72-7.37a55.37,55.37,0,0,0,10.32-12.09,111.23,111.23,0,0,0,6-13.5C526,366.7,527.42,363.26,528.36,361.24Z"/><path class="cls-1" d="M596.61,397.25l13.25,0,5.8.32,4.61-.35c12.11,0,19.6.06,22.58.32l.18,3.36q.06,25.17-.61,48.66c-.3,9.28-.47,14.51-.47,15.82q.09,31.39,2.16,39.23c1.33,5.25,4.54,9.4,9.63,12.53s11.1,4.71,18.2,4.67a56.92,56.92,0,0,0,24.73-5.5A74.17,74.17,0,0,0,716.75,503a105.84,105.84,0,0,0,.86-15q0-26.52.48-35.79c.1-3.68.14-6.91.14-9.64,0-19.22-1.06-30.1-2.92-32.56s-9.11-4.45-21.63-5.69c-4.11-.44-7.13-.88-9-1.21a8.15,8.15,0,0,1-1.46-3.56l.54-2a80.25,80.25,0,0,1,9-.54l28.16.26c10-.26,15.33-.39,15.94-.37,1.3,0,2.52.06,3.71.15l.39,13q-1.22,27.1-1.24,67l-.31,14.45.79,24.23c1,1.9,1.94,3,2.78,3.35,1.46.65,4.36.89,8.73.89h1.55c1.56,0,6,.33,13.13,1a32.43,32.43,0,0,1,.18,3.39l0,2a327,327,0,0,0-38.38,10.45,86.28,86.28,0,0,1-9.94,2.85c-.59-4.12-.93-6.68-.93-7.64V517.59c0-.6-.1-2.22-.22-4.81-1.53,1-3.31,2.4-5.33,3.91a163.26,163.26,0,0,1-29.48,18.47q-10.49,5.16-20.2,5.18-18.58.07-30.26-13.79c-8-9.27-11.95-25-12-47.38,0-1.17,0-3.33.16-6.43.44-5.69.7-9.68.68-11.93,0-.81-.09-3.43-.21-7.84-.13-1.91-.22-3.6-.22-5,0-1.07.09-3.47.19-7.23s.15-6.37.15-7.92c0-2-.06-3.79-.17-5.34L620,418l.18-5a6.68,6.68,0,0,0-2.87-5.19c-7.41-2-12.28-3.16-14.59-3.41a26.23,26.23,0,0,1-6.13-1.48Z"/><path class="cls-1" d="M919.94,512.07a8.64,8.64,0,0,1,1,3.35c0,1.81-1.34,5-4.2,9.49q-5.46,9-12.14,13c-2.85,1.77-6.77,2.68-11.7,2.71-8.54,0-14.88-2.6-19.13-7.81-2.65-3.06-4.5-8.6-5.56-16.57l-19.8,14c-7,4-12.26,6.61-15.94,7.71a87,87,0,0,1-21.25,2.36c-6,0-10.78-1.78-14.28-5.4s-5.23-8.3-5.25-14c0-8.17,5-18.05,14.91-29.45s23.57-20.79,40.72-28.09c12.06-5.11,19.43-8.41,22.14-9.82.18-3.93.33-8.2.33-12.88,0-15.07-2.2-25.24-6.4-30.61s-10.23-8-18-8q-12.28,0-22.88,9.68c-4.38,4-7.68,11.64-9.89,22.87a40.26,40.26,0,0,1-4,9.95c-5.11,3.39-9.17,5-12.21,5a11.9,11.9,0,0,1-7.12-2.31,3.6,3.6,0,0,1-1.78-2.83q0-4.67,9.83-21T822,399.06c10-5.41,18.66-8.16,26.1-8.16,10.18,0,17.72.82,22.71,2.7a30.79,30.79,0,0,1,13.11,9.67,31.14,31.14,0,0,1,6.93,15.12c.52,2.66.73,11.95.81,28l-.46,28.31.2,20.7c0,2.73,0,5-.15,6.92-.09,3.47-.16,6-.16,7.69a13.36,13.36,0,0,0,3.37,9.42A10.64,10.64,0,0,0,902.5,523c4.42,0,8.24-2.24,11.47-6.77l2.08-2.86A18,18,0,0,1,919.94,512.07Zm-51.91-5q1.2-22.64,1.15-31.92c0-3.19-.17-7.53-.59-13a122.21,122.21,0,0,0-25.15,13.05,75.15,75.15,0,0,0-21.09,20.22q-5.67,8.16-5.61,15.53a15.61,15.61,0,0,0,4.7,11.57,16,16,0,0,0,11.8,4.56q5.55,0,13.35-3.93Q856.9,517.94,868,507.05Z"/><path class="cls-1" d="M938.33,628.22l13.41-16.6a74.74,74.74,0,0,0,7.49-16,95.25,95.25,0,0,0,3.76-20.7c1-13.63,1.52-25.61,1.49-36-.05-3-.16-7.13-.43-12.44l.13-27.8c0-34.77-.22-57.21-.86-67.3-.36-6.29-1.33-10.21-2.88-11.74-2.26-2.16-7.39-3.54-15.42-4.22-.84-.12-2-.25-3.57-.39l.38-6.84q23.05-6,33.46-20c1.5-1.88,3.2-3.79,5.06-5.72l1.25-.17a6.29,6.29,0,0,1,2.49.72l.7,64.87c1,45.3,1.37,69.83,1.42,73.74q0,34.22-3.29,49.66A100.33,100.33,0,0,1,970,602.1c-4.47,7.14-10.84,14.53-19.2,22.18l-7.19,6.58-2.51,1.44A12.06,12.06,0,0,1,938.33,628.22Z"/><path class="cls-1" d="M444.66,319.66a15.56,15.56,0,0,1-15.49,15.6h0a15.52,15.52,0,0,1-15.61-15.49h0a15.58,15.58,0,0,1,15.51-15.63h0a15.58,15.58,0,0,1,15.59,15.52Z"/></svg>