<svg xmlns="http://www.w3.org/2000/svg" width="151" height="20" viewBox="0 0 151 20">
    <g fill="#E62800" fill-rule="evenodd">
        <path d="M65.9 8.156c-.083.13-.171.226-.265.285-.093.06-.21.09-.348.09-.146 0-.304-.049-.473-.146-.17-.097-.373-.204-.609-.323-.236-.118-.511-.226-.827-.323-.315-.096-.688-.145-1.118-.145-.388 0-.728.042-1.019.127-.291.084-.535.2-.733.35-.198.15-.345.33-.442.539-.097.209-.146.438-.146.688 0 .318.1.583.297.795.197.213.459.393.785.543.326.15.697.284 1.113.403.416.118.842.245 1.279.379.437.134.863.29 1.28.468.415.178.786.402 1.112.674.326.271.588.603.785.997.198.393.297.87.297 1.432 0 .611-.117 1.184-.349 1.717-.232.534-.572.999-1.019 1.395-.447.396-.993.708-1.638.936-.645.228-1.383.342-2.215.342-.479 0-.95-.043-1.415-.127-.464-.084-.91-.204-1.336-.36-.426-.156-.827-.343-1.201-.562-.375-.218-.707-.462-.999-.73l.822-1.207c.07-.088.16-.16.27-.22.111-.06.23-.09.354-.09.173 0 .36.065.562.193.2.128.44.27.717.426.277.156.602.298.973.425.37.128.816.192 1.336.192.797 0 1.414-.17 1.851-.51.437-.34.655-.828.655-1.465 0-.355-.098-.645-.296-.87-.198-.225-.46-.414-.785-.566-.326-.153-.697-.283-1.113-.389-.416-.106-.839-.221-1.269-.346-.43-.125-.853-.275-1.269-.45-.416-.174-.787-.402-1.112-.683-.326-.28-.588-.631-.786-1.053-.197-.42-.296-.94-.296-1.558 0-.493.11-.974.328-1.442.218-.468.535-.883.951-1.244.416-.362.93-.653 1.54-.87.61-.22 1.31-.329 2.1-.329.888 0 1.706.125 2.455.375.748.25 1.386.599 1.913 1.048L65.9 8.156zM72.067 7.697L72.067 11.451 77.33 11.451 77.33 13.388 72.067 13.388 72.067 17.216 78.744 17.216 78.744 19.229 69.259 19.229 69.259 5.694 78.744 5.694 78.744 7.697zM93.253 12.443v5.475c-.763.506-1.576.876-2.44 1.11-.862.234-1.786.35-2.77.35-1.228 0-2.34-.171-3.334-.514-.995-.343-1.844-.82-2.548-1.432s-1.246-1.342-1.628-2.19c-.381-.849-.572-1.776-.572-2.78 0-1.017.184-1.95.552-2.799.367-.849.889-1.579 1.565-2.19.676-.612 1.496-1.086 2.46-1.423.963-.337 2.045-.506 3.244-.506.61 0 1.18.044 1.711.131.53.088 1.023.208 1.477.36.454.154.868.34 1.243.558.374.218.717.458 1.03.72l-.801 1.142c-.125.182-.288.292-.49.333-.2.04-.419-.005-.654-.136l-.687-.356c-.229-.118-.483-.221-.764-.309-.281-.087-.597-.159-.947-.215-.35-.056-.754-.084-1.211-.084-.742 0-1.413.112-2.013.337-.6.224-1.11.546-1.534.964-.423.418-.749.92-.977 1.507-.23.587-.344 1.242-.344 1.966 0 .773.123 1.464.37 2.073.246.608.592 1.123 1.04 1.544.447.421.986.743 1.617.964.63.222 1.334.333 2.11.333.556 0 1.052-.053 1.488-.16.437-.106.864-.249 1.28-.43v-2.452h-1.893c-.18 0-.321-.046-.421-.136-.101-.09-.151-.201-.151-.332v-1.423h4.992zM101.968 17.198c.54 0 1.024-.081 1.45-.244.427-.162.786-.39 1.077-.683.291-.293.515-.649.671-1.067.156-.418.234-.886.234-1.404V5.694h2.798V13.8c0 .805-.144 1.55-.432 2.232-.288.684-.7 1.273-1.238 1.77-.537.495-1.19.883-1.96 1.16-.77.278-1.637.417-2.6.417-.97 0-1.84-.14-2.61-.417-.77-.277-1.424-.665-1.96-1.16-.538-.497-.95-1.086-1.239-1.77-.287-.683-.431-1.427-.431-2.232V5.694h2.797v8.097c0 .518.079.986.235 1.404.155.418.38.775.676 1.071.294.297.655.526 1.081.688.427.163.91.244 1.451.244M115.862 12.134c.527 0 .987-.06 1.379-.178.391-.118.713-.282.967-.491.253-.21.442-.457.567-.744.124-.287.187-.603.187-.946 0-.686-.252-1.213-.754-1.582-.503-.368-1.271-.552-2.304-.552h-1.789v4.493h1.747zm7.197 7.095h-2.527c-.478 0-.825-.169-1.04-.506l-3.162-4.333c-.118-.162-.248-.278-.39-.347-.142-.068-.352-.103-.629-.103h-1.196v5.289h-2.798V5.694h4.587c1.02 0 1.894.095 2.626.286.731.19 1.331.457 1.8.8.467.343.812.753 1.034 1.23.222.478.333 1.004.333 1.578 0 .456-.075.886-.224 1.292-.149.405-.364.774-.645 1.104-.28.331-.627.621-1.04.87-.412.25-.882.447-1.409.59.18.094.347.205.5.333.152.128.29.279.415.453l3.765 4.999zM135.924 12.462c0-.743-.111-1.41-.333-1.999-.222-.59-.537-1.09-.946-1.502-.41-.412-.907-.727-1.493-.945-.586-.219-1.246-.328-1.981-.328-.735 0-1.395.11-1.981.328-.586.218-1.085.533-1.498.945-.412.412-.73.913-.951 1.502-.222.59-.333 1.256-.333 1.999 0 .742.11 1.408.333 1.998.221.59.539 1.089.951 1.498.413.408.912.722 1.498.94.586.219 1.246.328 1.981.328.735 0 1.395-.11 1.981-.328.586-.218 1.084-.532 1.493-.94.409-.41.724-.908.946-1.498.222-.59.333-1.256.333-1.998m2.86 0c0 .992-.182 1.91-.546 2.756-.364.846-.879 1.577-1.544 2.195-.666.618-1.467 1.1-2.403 1.446-.936.347-1.976.52-3.12.52-1.137 0-2.174-.173-3.11-.52-.936-.346-1.738-.828-2.407-1.446-.67-.618-1.188-1.35-1.555-2.195-.368-.845-.551-1.764-.551-2.756 0-.993.183-1.911.551-2.757.367-.845.886-1.577 1.555-2.195.669-.618 1.471-1.1 2.407-1.446.936-.346 1.973-.52 3.11-.52.763 0 1.48.08 2.153.239.672.16 1.29.384 1.851.674.562.29 1.066.643 1.513 1.058.448.415.827.878 1.14 1.39.311.511.549 1.067.712 1.666.163.599.244 1.23.244 1.89M149.215 8.156c-.083.13-.171.226-.265.285-.094.06-.21.09-.348.09-.146 0-.304-.049-.474-.146-.17-.097-.372-.204-.608-.323-.236-.118-.511-.226-.827-.323-.315-.096-.688-.145-1.118-.145-.388 0-.728.042-1.019.127-.291.084-.536.2-.733.35-.198.15-.345.33-.442.539-.097.209-.146.438-.146.688 0 .318.099.583.297.795.197.213.459.393.785.543.326.15.697.284 1.113.403.416.118.842.245 1.279.379.437.134.863.29 1.279.468.416.178.787.402 1.113.674.326.271.587.603.785.997.198.393.297.87.297 1.432 0 .611-.117 1.184-.349 1.717-.232.534-.572.999-1.02 1.395-.446.396-.992.708-1.637.936-.645.228-1.383.342-2.215.342-.479 0-.95-.043-1.415-.127-.464-.084-.91-.204-1.336-.36-.427-.156-.827-.343-1.201-.562-.375-.218-.708-.462-.999-.73l.822-1.207c.07-.088.16-.16.27-.22.111-.06.229-.09.354-.09.173 0 .36.065.562.193.2.128.44.27.717.426.277.156.601.298.973.425.37.128.816.192 1.336.192.797 0 1.414-.17 1.851-.51.437-.34.655-.828.655-1.465 0-.355-.098-.645-.296-.87-.198-.225-.46-.414-.785-.566-.326-.153-.697-.283-1.113-.389-.416-.106-.839-.221-1.269-.346-.43-.125-.853-.275-1.269-.45-.416-.174-.787-.402-1.113-.683-.326-.28-.587-.631-.785-1.053-.197-.42-.296-.94-.296-1.558 0-.493.109-.974.328-1.442.218-.468.535-.883.951-1.244.416-.362.93-.653 1.54-.87.61-.22 1.31-.329 2.1-.329.887 0 1.706.125 2.454.375.75.25 1.387.599 1.914 1.048l-.697 1.189zM39.601 8.692c1.233.048 1.87.529 2.631 1.388l2.083-2.67c-.567-.659-2.18-1.794-4.877-1.794-4.033 0-6.976 2.859-6.976 6.887 0 4.056 2.943 6.914 6.976 6.914 2.697 0 3.88-1.134 4.941-2.047l-1.914-2.994c-.6 1.141-1.664 1.965-2.864 1.965-2.098 0-3.57-1.552-3.57-3.838s1.473-3.893 3.57-3.81M18.08 15.721V.11h3.451v14.578c0 .883.358 1.832.99 1.832.462 0 .69-.304.748-.53l.92 2.196c-.294.68-1.36 1.256-2.625 1.256-2.166 0-3.484-1.244-3.484-3.72M26.688 19.442L30.161 19.442 30.161 5.633 26.688 5.633zM26.687.11L26.687 4.943 27.975 3.301 30.172 3.608zM51.22 5.634L46.39 11.847 51.22 19.441 54.672 19.441 49.839 11.847 54.672 5.634zM9.148 3.545c2.35 0 4.007 1.223 4.862 3.049l2.32-3C15.318 2.41 13.122.04 9.18.04 4.267.04.1 4.047.1 9.728v.007h3.52c.03-3.426 2.133-6.19 5.528-6.19M9.135 16.01c-3.439 0-5.516-2.74-5.516-6.2v-.075H.1c.003 5.712 4.157 9.68 9.03 9.68 3.618 0 6.256-2.928 6.877-3.614l-2.247-2.589c-1.174 1.938-2.964 2.798-4.625 2.798"/>
    </g>
</svg>
