<?xml version="1.0" encoding="UTF-8"?>
<svg xmlns="http://www.w3.org/2000/svg" width="512" height="512" viewBox="0 0 128 128"><g><path d="M126.25,90.834h-8.681V23.665a1.749,1.749,0,0,0-1.75-1.75H89.893l-2.3-5.083A1.751,1.751,0,0,0,86,15.8H42A1.749,1.749,0,0,0,40.4,16.832l-2.3,5.083H12.181a1.749,1.749,0,0,0-1.75,1.75V90.834H1.75A1.749,1.749,0,0,0,0,92.584v8.768A10.857,10.857,0,0,0,10.846,112.2H117.154A10.857,10.857,0,0,0,128,101.352V92.584A1.749,1.749,0,0,0,126.25,90.834ZM95.089,33.415h10.98V82.834H92.493V53.182H94.5a5.006,5.006,0,0,0,5-5V43.557a1.991,1.991,0,0,0-.155-.721ZM55.5,82.834H47.007V65.65H55.5ZM57.25,62.15H45.257a1.75,1.75,0,0,0-1.75,1.75V82.834h-4.5V53.182h1.221a5.142,5.142,0,0,0,3.522-1.218,5.146,5.146,0,0,0,3.521,1.218h6.457a5.142,5.142,0,0,0,3.522-1.218,5.146,5.146,0,0,0,3.521,1.218h6.457a5.142,5.142,0,0,0,3.522-1.218,5.146,5.146,0,0,0,3.521,1.218h6.457a5.142,5.142,0,0,0,3.522-1.218,5.146,5.146,0,0,0,3.521,1.218h1.222V82.834H59V63.9A1.75,1.75,0,0,0,57.25,62.15ZM21.931,82.834V33.415h10.98l-4.256,9.421a1.991,1.991,0,0,0-.155.721v4.624a5.006,5.006,0,0,0,5,5h2.007V82.834ZM55.5,45.307v2.874a1.588,1.588,0,0,1-1.772,1.5H47.271a1.588,1.588,0,0,1-1.771-1.5V45.307Zm13.5,0v2.874a1.588,1.588,0,0,1-1.772,1.5H60.771A1.588,1.588,0,0,1,59,48.181V45.307Zm13.5,0v2.874a1.588,1.588,0,0,1-1.772,1.5H74.271a1.588,1.588,0,0,1-1.771-1.5V45.307Zm13.5,0v2.874a1.5,1.5,0,0,1-1.5,1.5H87.771A1.588,1.588,0,0,1,86,48.181V45.307ZM42,48.181a1.588,1.588,0,0,1-1.772,1.5H33.5a1.5,1.5,0,0,1-1.5-1.5V45.307H42ZM43.128,19.3H84.872l10.167,22.5H32.961Zm-29.2,6.112h22.6l-2.033,4.5H20.181a1.749,1.749,0,0,0-1.75,1.75V84.584a1.749,1.749,0,0,0,1.75,1.75h87.638a1.749,1.749,0,0,0,1.75-1.75V31.665a1.749,1.749,0,0,0-1.75-1.75H93.507l-2.033-4.5h22.6V90.834H13.931ZM45.446,94.334H82.554v4.583a.85.85,0,0,1-.85.849H46.3a.85.85,0,0,1-.85-.849Zm79.054,7.018a7.354,7.354,0,0,1-7.346,7.345H10.846A7.354,7.354,0,0,1,3.5,101.352V94.334H41.946v4.583a4.354,4.354,0,0,0,4.35,4.349H81.7a4.355,4.355,0,0,0,4.35-4.349V94.334H124.5Z"/><path d="M64,78.334H82.743a1.749,1.749,0,0,0,1.75-1.75V64a1.749,1.749,0,0,0-1.75-1.75H64A1.749,1.749,0,0,0,62.25,64V76.584A1.749,1.749,0,0,0,64,78.334Zm1.75-12.587H80.993v9.087H65.75Z"/></g></svg>
